P1
10 10
0001011010
1001010001
0011000101
0000000100
1101010111
1011111001
0110101011
1001110111
0100111010
1000001010
